<svg width="1026" height="1316" viewBox="0 0 1026 1316" class="keymap" xmlns="http://www.w3.org/2000/svg">
<style>
svg.keymap {
    font-family: SFMono-Regular, Consolas, Liberation Mono, Menlo, monospace;
    font-size: 14px;
    text-rendering: optimizeLegibility;
    fill: #1f2328;
    background: #ffffff;
}
rect.key {
    fill: #f6f8fa;
    stroke: #c9cccf;
    stroke-width: 1;
}
text {
    text-anchor: middle;
    dominant-baseline: middle;
}
text.label {
    font-weight: bold;
    text-anchor: start;
    font-size: 18px;
}
text.tap {
    font-size: 13px;
}
text.hold {
    font-size: 10px;
    fill: #57606a;
}
text.trans {
    fill: #8c959f;
}
.layer-box {
    fill: none;
    stroke: #d8dee4;
    stroke-width: 1;
    rx: 10;
}
</style>
<g transform="translate(30, 0)" class="layer-DEFAULT">
<text x="0" y="28" class="label">DEFAULT</text>
<rect x="102" y="10" width="856.0" height="306" class="layer-box"/>
<g transform="translate(110, 56)">
<g transform="translate(26.0, 26.0)" class="key keypos-0">
<rect rx="6" ry="6" x="-26" y="-26" width="52" height="52" class="key"/>
<text x="0" y="2" class="tap">ESC</text>
</g>
<g transform="translate(82.0, 26.0)" class="key keypos-1">
<rect rx="6" ry="6" x="-26" y="-26" width="52" height="52" class="key"/>
<text x="0" y="2" class="tap">Q</text>
</g>
<g transform="translate(138.0, 26.0)" class="key keypos-2">
<rect rx="6" ry="6" x="-26" y="-26" width="52" height="52" class="key"/>
<text x="0" y="2" class="tap">W</text>
</g>
<g transform="translate(194.0, 26.0)" class="key keypos-3">
<rect rx="6" ry="6" x="-26" y="-26" width="52" height="52" class="key"/>
<text x="0" y="2" class="tap">E</text>
</g>
<g transform="translate(250.0, 26.0)" class="key keypos-4">
<rect rx="6" ry="6" x="-26" y="-26" width="52" height="52" class="key"/>
<text x="0" y="2" class="tap">R</text>
</g>
<g transform="translate(306.0, 26.0)" class="key keypos-5">
<rect rx="6" ry="6" x="-26" y="-26" width="52" height="52" class="key"/>
<text x="0" y="2" class="tap">T</text>
</g>
<g transform="translate(530.0, 26.0)" class="key keypos-6">
<rect rx="6" ry="6" x="-26" y="-26" width="52" height="52" class="key"/>
<text x="0" y="2" class="tap">Y</text>
</g>
<g transform="translate(586.0, 26.0)" class="key keypos-7">
<rect rx="6" ry="6" x="-26" y="-26" width="52" height="52" class="key"/>
<text x="0" y="2" class="tap">U</text>
</g>
<g transform="translate(642.0, 26.0)" class="key keypos-8">
<rect rx="6" ry="6" x="-26" y="-26" width="52" height="52" class="key"/>
<text x="0" y="2" class="tap">I</text>
</g>
<g transform="translate(698.0, 26.0)" class="key keypos-9">
<rect rx="6" ry="6" x="-26" y="-26" width="52" height="52" class="key"/>
<text x="0" y="2" class="tap">O</text>
</g>
<g transform="translate(754.0, 26.0)" class="key keypos-10">
<rect rx="6" ry="6" x="-26" y="-26" width="52" height="52" class="key"/>
<text x="0" y="2" class="tap">P</text>
</g>
<g transform="translate(810.0, 26.0)" class="key keypos-11">
<rect rx="6" ry="6" x="-26" y="-26" width="52" height="52" class="key"/>
<text x="0" y="2" class="tap">BACKSPACE</text>
</g>
<g transform="translate(26.0, 82.0)" class="key keypos-12">
<rect rx="6" ry="6" x="-26" y="-26" width="52" height="52" class="key"/>
<text x="0" y="2" class="tap">TAB</text>
</g>
<g transform="translate(82.0, 82.0)" class="key keypos-13">
<rect rx="6" ry="6" x="-26" y="-26" width="52" height="52" class="key"/>
<text x="0" y="2" class="tap">A</text>
</g>
<g transform="translate(138.0, 82.0)" class="key keypos-14">
<rect rx="6" ry="6" x="-26" y="-26" width="52" height="52" class="key"/>
<text x="0" y="2" class="tap">S</text>
</g>
<g transform="translate(194.0, 82.0)" class="key keypos-15">
<rect rx="6" ry="6" x="-26" y="-26" width="52" height="52" class="key"/>
<text x="0" y="2" class="tap">D</text>
</g>
<g transform="translate(250.0, 82.0)" class="key keypos-16">
<rect rx="6" ry="6" x="-26" y="-26" width="52" height="52" class="key"/>
<text x="0" y="2" class="tap">F</text>
</g>
<g transform="translate(306.0, 82.0)" class="key keypos-17">
<rect rx="6" ry="6" x="-26" y="-26" width="52" height="52" class="key"/>
<text x="0" y="2" class="tap">G</text>
</g>
<g transform="translate(530.0, 82.0)" class="key keypos-18">
<rect rx="6" ry="6" x="-26" y="-26" width="52" height="52" class="key"/>
<text x="0" y="2" class="tap">H</text>
</g>
<g transform="translate(586.0, 82.0)" class="key keypos-19">
<rect rx="6" ry="6" x="-26" y="-26" width="52" height="52" class="key"/>
<text x="0" y="2" class="tap">J</text>
</g>
<g transform="translate(642.0, 82.0)" class="key keypos-20">
<rect rx="6" ry="6" x="-26" y="-26" width="52" height="52" class="key"/>
<text x="0" y="2" class="tap">K</text>
</g>
<g transform="translate(698.0, 82.0)" class="key keypos-21">
<rect rx="6" ry="6" x="-26" y="-26" width="52" height="52" class="key"/>
<text x="0" y="2" class="tap">L</text>
</g>
<g transform="translate(754.0, 82.0)" class="key keypos-22">
<rect rx="6" ry="6" x="-26" y="-26" width="52" height="52" class="key"/>
<text x="0" y="2" class="tap">;</text>
</g>
<g transform="translate(810.0, 82.0)" class="key keypos-23">
<rect rx="6" ry="6" x="-26" y="-26" width="52" height="52" class="key"/>
<text x="0" y="2" class="tap">&#39;</text>
</g>
<g transform="translate(26.0, 138.0)" class="key keypos-24">
<rect rx="6" ry="6" x="-26" y="-26" width="52" height="52" class="key"/>
<text x="0" y="2" class="tap">LEFT SHIFT</text>
</g>
<g transform="translate(82.0, 138.0)" class="key keypos-25">
<rect rx="6" ry="6" x="-26" y="-26" width="52" height="52" class="key"/>
<text x="0" y="2" class="tap">Z</text>
</g>
<g transform="translate(138.0, 138.0)" class="key keypos-26">
<rect rx="6" ry="6" x="-26" y="-26" width="52" height="52" class="key"/>
<text x="0" y="2" class="tap">X</text>
</g>
<g transform="translate(194.0, 138.0)" class="key keypos-27">
<rect rx="6" ry="6" x="-26" y="-26" width="52" height="52" class="key"/>
<text x="0" y="2" class="tap">C</text>
</g>
<g transform="translate(250.0, 138.0)" class="key keypos-28">
<rect rx="6" ry="6" x="-26" y="-26" width="52" height="52" class="key"/>
<text x="0" y="2" class="tap">V</text>
</g>
<g transform="translate(306.0, 138.0)" class="key keypos-29">
<rect rx="6" ry="6" x="-26" y="-26" width="52" height="52" class="key"/>
<text x="0" y="2" class="tap">B</text>
</g>
<g transform="translate(530.0, 138.0)" class="key keypos-30">
<rect rx="6" ry="6" x="-26" y="-26" width="52" height="52" class="key"/>
<text x="0" y="2" class="tap">N</text>
</g>
<g transform="translate(586.0, 138.0)" class="key keypos-31">
<rect rx="6" ry="6" x="-26" y="-26" width="52" height="52" class="key"/>
<text x="0" y="2" class="tap">M</text>
</g>
<g transform="translate(642.0, 138.0)" class="key keypos-32">
<rect rx="6" ry="6" x="-26" y="-26" width="52" height="52" class="key"/>
<text x="0" y="2" class="tap">,</text>
</g>
<g transform="translate(698.0, 138.0)" class="key keypos-33">
<rect rx="6" ry="6" x="-26" y="-26" width="52" height="52" class="key"/>
<text x="0" y="2" class="tap">.</text>
</g>
<g transform="translate(754.0, 138.0)" class="key keypos-34">
<rect rx="6" ry="6" x="-26" y="-26" width="52" height="52" class="key"/>
<text x="0" y="2" class="tap">UP</text>
</g>
<g transform="translate(810.0, 138.0)" class="key keypos-35">
<rect rx="6" ry="6" x="-26" y="-26" width="52" height="52" class="key"/>
<text x="0" y="2" class="tap">/</text>
</g>
<g transform="translate(26.0, 194.0)" class="key keypos-36">
<rect rx="6" ry="6" x="-26" y="-26" width="52" height="52" class="key"/>
<text x="0" y="2" class="tap">LEFT CONTROL</text>
</g>
<g transform="translate(82.0, 194.0)" class="key keypos-37">
<rect rx="6" ry="6" x="-26" y="-26" width="52" height="52" class="key"/>
<text x="0" y="2" class="tap">LEFT ALT</text>
</g>
<g transform="translate(138.0, 194.0)" class="key keypos-38">
<rect rx="6" ry="6" x="-26" y="-26" width="52" height="52" class="key"/>
<text x="0" y="2" class="tap">LEFT GUI</text>
</g>
<g transform="translate(194.0, 194.0)" class="key keypos-39">
<rect rx="6" ry="6" x="-26" y="-26" width="52" height="52" class="key"/>
<text x="0" y="2" class="tap">FN</text>
</g>
<g transform="translate(250.0, 194.0)" class="key keypos-40">
<rect rx="6" ry="6" x="-26" y="-26" width="52" height="52" class="key"/>
<text x="0" y="-12" class="hold">NUMBER</text>
<text x="0" y="8" class="tap">英数</text>
</g>
<g transform="translate(306.0, 194.0)" class="key keypos-41">
<rect rx="6" ry="6" x="-26" y="-26" width="52" height="52" class="key"/>
<text x="0" y="2" class="tap">SPACE</text>
</g>
<g transform="translate(362.0, 194.0)" class="key keypos-42">
<rect rx="6" ry="6" x="-26" y="-26" width="52" height="52" class="key"/>
<text x="0" y="2" class="tap">[</text>
</g>
<g transform="translate(474.0, 194.0)" class="key keypos-43">
<rect rx="6" ry="6" x="-26" y="-26" width="52" height="52" class="key"/>
<text x="0" y="2" class="tap">]</text>
</g>
<g transform="translate(530.0, 194.0)" class="key keypos-44">
<rect rx="6" ry="6" x="-26" y="-26" width="52" height="52" class="key"/>
<text x="0" y="2" class="tap">SPACE</text>
</g>
<g transform="translate(586.0, 194.0)" class="key keypos-45">
<rect rx="6" ry="6" x="-26" y="-26" width="52" height="52" class="key"/>
<text x="0" y="-12" class="hold">SYMBOL</text>
<text x="0" y="8" class="tap">かな</text>
</g>
<g transform="translate(642.0, 194.0)" class="key keypos-46">
<rect rx="6" ry="6" x="-26" y="-26" width="52" height="52" class="key"/>
<text x="0" y="2" class="tap">ENTER</text>
</g>
<g transform="translate(698.0, 194.0)" class="key keypos-47">
<rect rx="6" ry="6" x="-26" y="-26" width="52" height="52" class="key"/>
<text x="0" y="2" class="tap">LEFT</text>
</g>
<g transform="translate(754.0, 194.0)" class="key keypos-48">
<rect rx="6" ry="6" x="-26" y="-26" width="52" height="52" class="key"/>
<text x="0" y="2" class="tap">DOWN</text>
</g>
<g transform="translate(810.0, 194.0)" class="key keypos-49">
<rect rx="6" ry="6" x="-26" y="-26" width="52" height="52" class="key"/>
<text x="0" y="2" class="tap">RIGHT</text>
</g>
</g>
</g>
<g transform="translate(30, 360)" class="layer-SYMBOL">
<text x="0" y="28" class="label">SYMBOL</text>
<rect x="102" y="10" width="856.0" height="306" class="layer-box"/>
<g transform="translate(110, 56)">
<g transform="translate(26.0, 26.0)" class="key keypos-0">
<rect rx="6" ry="6" x="-26" y="-26" width="52" height="52" class="key"/>
<text x="0" y="2" class="tap">ESC</text>
</g>
<g transform="translate(82.0, 26.0)" class="key keypos-1">
<rect rx="6" ry="6" x="-26" y="-26" width="52" height="52" class="key"/>
<text x="0" y="2" class="tap">!</text>
</g>
<g transform="translate(138.0, 26.0)" class="key keypos-2">
<rect rx="6" ry="6" x="-26" y="-26" width="52" height="52" class="key"/>
<text x="0" y="2" class="tap">@</text>
</g>
<g transform="translate(194.0, 26.0)" class="key keypos-3">
<rect rx="6" ry="6" x="-26" y="-26" width="52" height="52" class="key"/>
<text x="0" y="2" class="tap">#</text>
</g>
<g transform="translate(250.0, 26.0)" class="key keypos-4">
<rect rx="6" ry="6" x="-26" y="-26" width="52" height="52" class="key"/>
<text x="0" y="2" class="tap">$</text>
</g>
<g transform="translate(306.0, 26.0)" class="key keypos-5">
<rect rx="6" ry="6" x="-26" y="-26" width="52" height="52" class="key"/>
<text x="0" y="2" class="tap">%</text>
</g>
<g transform="translate(530.0, 26.0)" class="key keypos-6">
<rect rx="6" ry="6" x="-26" y="-26" width="52" height="52" class="key"/>
<text x="0" y="2" class="tap trans">▽</text>
</g>
<g transform="translate(586.0, 26.0)" class="key keypos-7">
<rect rx="6" ry="6" x="-26" y="-26" width="52" height="52" class="key"/>
<text x="0" y="2" class="tap trans">▽</text>
</g>
<g transform="translate(642.0, 26.0)" class="key keypos-8">
<rect rx="6" ry="6" x="-26" y="-26" width="52" height="52" class="key"/>
<text x="0" y="2" class="tap trans">▽</text>
</g>
<g transform="translate(698.0, 26.0)" class="key keypos-9">
<rect rx="6" ry="6" x="-26" y="-26" width="52" height="52" class="key"/>
<text x="0" y="2" class="tap trans">▽</text>
</g>
<g transform="translate(754.0, 26.0)" class="key keypos-10">
<rect rx="6" ry="6" x="-26" y="-26" width="52" height="52" class="key"/>
<text x="0" y="2" class="tap trans">▽</text>
</g>
<g transform="translate(810.0, 26.0)" class="key keypos-11">
<rect rx="6" ry="6" x="-26" y="-26" width="52" height="52" class="key"/>
<text x="0" y="2" class="tap trans">▽</text>
</g>
<g transform="translate(26.0, 82.0)" class="key keypos-12">
<rect rx="6" ry="6" x="-26" y="-26" width="52" height="52" class="key"/>
<text x="0" y="2" class="tap">TAB</text>
</g>
<g transform="translate(82.0, 82.0)" class="key keypos-13">
<rect rx="6" ry="6" x="-26" y="-26" width="52" height="52" class="key"/>
<text x="0" y="2" class="tap">^</text>
</g>
<g transform="translate(138.0, 82.0)" class="key keypos-14">
<rect rx="6" ry="6" x="-26" y="-26" width="52" height="52" class="key"/>
<text x="0" y="2" class="tap">&amp;</text>
</g>
<g transform="translate(194.0, 82.0)" class="key keypos-15">
<rect rx="6" ry="6" x="-26" y="-26" width="52" height="52" class="key"/>
<text x="0" y="2" class="tap">*</text>
</g>
<g transform="translate(250.0, 82.0)" class="key keypos-16">
<rect rx="6" ry="6" x="-26" y="-26" width="52" height="52" class="key"/>
<text x="0" y="2" class="tap">(</text>
</g>
<g transform="translate(306.0, 82.0)" class="key keypos-17">
<rect rx="6" ry="6" x="-26" y="-26" width="52" height="52" class="key"/>
<text x="0" y="2" class="tap">)</text>
</g>
<g transform="translate(530.0, 82.0)" class="key keypos-18">
<rect rx="6" ry="6" x="-26" y="-26" width="52" height="52" class="key"/>
<text x="0" y="2" class="tap trans">▽</text>
</g>
<g transform="translate(586.0, 82.0)" class="key keypos-19">
<rect rx="6" ry="6" x="-26" y="-26" width="52" height="52" class="key"/>
<text x="0" y="2" class="tap trans">▽</text>
</g>
<g transform="translate(642.0, 82.0)" class="key keypos-20">
<rect rx="6" ry="6" x="-26" y="-26" width="52" height="52" class="key"/>
<text x="0" y="2" class="tap trans">▽</text>
</g>
<g transform="translate(698.0, 82.0)" class="key keypos-21">
<rect rx="6" ry="6" x="-26" y="-26" width="52" height="52" class="key"/>
<text x="0" y="2" class="tap trans">▽</text>
</g>
<g transform="translate(754.0, 82.0)" class="key keypos-22">
<rect rx="6" ry="6" x="-26" y="-26" width="52" height="52" class="key"/>
<text x="0" y="2" class="tap trans">▽</text>
</g>
<g transform="translate(810.0, 82.0)" class="key keypos-23">
<rect rx="6" ry="6" x="-26" y="-26" width="52" height="52" class="key"/>
<text x="0" y="2" class="tap trans">▽</text>
</g>
<g transform="translate(26.0, 138.0)" class="key keypos-24">
<rect rx="6" ry="6" x="-26" y="-26" width="52" height="52" class="key"/>
<text x="0" y="2" class="tap">LEFT SHIFT</text>
</g>
<g transform="translate(82.0, 138.0)" class="key keypos-25">
<rect rx="6" ry="6" x="-26" y="-26" width="52" height="52" class="key"/>
<text x="0" y="2" class="tap">Z</text>
</g>
<g transform="translate(138.0, 138.0)" class="key keypos-26">
<rect rx="6" ry="6" x="-26" y="-26" width="52" height="52" class="key"/>
<text x="0" y="2" class="tap">X</text>
</g>
<g transform="translate(194.0, 138.0)" class="key keypos-27">
<rect rx="6" ry="6" x="-26" y="-26" width="52" height="52" class="key"/>
<text x="0" y="2" class="tap">C</text>
</g>
<g transform="translate(250.0, 138.0)" class="key keypos-28">
<rect rx="6" ry="6" x="-26" y="-26" width="52" height="52" class="key"/>
<text x="0" y="2" class="tap">V</text>
</g>
<g transform="translate(306.0, 138.0)" class="key keypos-29">
<rect rx="6" ry="6" x="-26" y="-26" width="52" height="52" class="key"/>
<text x="0" y="2" class="tap">B</text>
</g>
<g transform="translate(530.0, 138.0)" class="key keypos-30">
<rect rx="6" ry="6" x="-26" y="-26" width="52" height="52" class="key"/>
<text x="0" y="2" class="tap trans">▽</text>
</g>
<g transform="translate(586.0, 138.0)" class="key keypos-31">
<rect rx="6" ry="6" x="-26" y="-26" width="52" height="52" class="key"/>
<text x="0" y="2" class="tap trans">▽</text>
</g>
<g transform="translate(642.0, 138.0)" class="key keypos-32">
<rect rx="6" ry="6" x="-26" y="-26" width="52" height="52" class="key"/>
<text x="0" y="2" class="tap trans">▽</text>
</g>
<g transform="translate(698.0, 138.0)" class="key keypos-33">
<rect rx="6" ry="6" x="-26" y="-26" width="52" height="52" class="key"/>
<text x="0" y="2" class="tap trans">▽</text>
</g>
<g transform="translate(754.0, 138.0)" class="key keypos-34">
<rect rx="6" ry="6" x="-26" y="-26" width="52" height="52" class="key"/>
<text x="0" y="2" class="tap trans">▽</text>
</g>
<g transform="translate(810.0, 138.0)" class="key keypos-35">
<rect rx="6" ry="6" x="-26" y="-26" width="52" height="52" class="key"/>
<text x="0" y="2" class="tap trans">▽</text>
</g>
<g transform="translate(26.0, 194.0)" class="key keypos-36">
<rect rx="6" ry="6" x="-26" y="-26" width="52" height="52" class="key"/>
<text x="0" y="2" class="tap">LEFT CONTROL</text>
</g>
<g transform="translate(82.0, 194.0)" class="key keypos-37">
<rect rx="6" ry="6" x="-26" y="-26" width="52" height="52" class="key"/>
<text x="0" y="2" class="tap">LEFT ALT</text>
</g>
<g transform="translate(138.0, 194.0)" class="key keypos-38">
<rect rx="6" ry="6" x="-26" y="-26" width="52" height="52" class="key"/>
<text x="0" y="2" class="tap">LEFT GUI</text>
</g>
<g transform="translate(194.0, 194.0)" class="key keypos-39">
<rect rx="6" ry="6" x="-26" y="-26" width="52" height="52" class="key"/>
<text x="0" y="2" class="tap">FN</text>
</g>
<g transform="translate(250.0, 194.0)" class="key keypos-40">
<rect rx="6" ry="6" x="-26" y="-26" width="52" height="52" class="key"/>
<text x="0" y="-12" class="hold">NUMBER</text>
<text x="0" y="8" class="tap">英数</text>
</g>
<g transform="translate(306.0, 194.0)" class="key keypos-41">
<rect rx="6" ry="6" x="-26" y="-26" width="52" height="52" class="key"/>
<text x="0" y="2" class="tap">SPACE</text>
</g>
<g transform="translate(362.0, 194.0)" class="key keypos-42">
<rect rx="6" ry="6" x="-26" y="-26" width="52" height="52" class="key"/>
<text x="0" y="2" class="tap">[</text>
</g>
<g transform="translate(474.0, 194.0)" class="key keypos-43">
<rect rx="6" ry="6" x="-26" y="-26" width="52" height="52" class="key"/>
<text x="0" y="2" class="tap trans">▽</text>
</g>
<g transform="translate(530.0, 194.0)" class="key keypos-44">
<rect rx="6" ry="6" x="-26" y="-26" width="52" height="52" class="key"/>
<text x="0" y="2" class="tap trans">▽</text>
</g>
<g transform="translate(586.0, 194.0)" class="key keypos-45">
<rect rx="6" ry="6" x="-26" y="-26" width="52" height="52" class="key"/>
<text x="0" y="2" class="tap trans">▽</text>
</g>
<g transform="translate(642.0, 194.0)" class="key keypos-46">
<rect rx="6" ry="6" x="-26" y="-26" width="52" height="52" class="key"/>
<text x="0" y="2" class="tap trans">▽</text>
</g>
<g transform="translate(698.0, 194.0)" class="key keypos-47">
<rect rx="6" ry="6" x="-26" y="-26" width="52" height="52" class="key"/>
<text x="0" y="2" class="tap trans">▽</text>
</g>
<g transform="translate(754.0, 194.0)" class="key keypos-48">
<rect rx="6" ry="6" x="-26" y="-26" width="52" height="52" class="key"/>
<text x="0" y="2" class="tap trans">▽</text>
</g>
<g transform="translate(810.0, 194.0)" class="key keypos-49">
<rect rx="6" ry="6" x="-26" y="-26" width="52" height="52" class="key"/>
<text x="0" y="2" class="tap trans">▽</text>
</g>
</g>
</g>
<g transform="translate(30, 720)" class="layer-NUMBER">
<text x="0" y="28" class="label">NUMBER</text>
<rect x="102" y="10" width="856.0" height="306" class="layer-box"/>
<g transform="translate(110, 56)">
<g transform="translate(26.0, 26.0)" class="key keypos-0">
<rect rx="6" ry="6" x="-26" y="-26" width="52" height="52" class="key"/>
<text x="0" y="2" class="tap trans">▽</text>
</g>
<g transform="translate(82.0, 26.0)" class="key keypos-1">
<rect rx="6" ry="6" x="-26" y="-26" width="52" height="52" class="key"/>
<text x="0" y="2" class="tap trans">▽</text>
</g>
<g transform="translate(138.0, 26.0)" class="key keypos-2">
<rect rx="6" ry="6" x="-26" y="-26" width="52" height="52" class="key"/>
<text x="0" y="2" class="tap trans">▽</text>
</g>
<g transform="translate(194.0, 26.0)" class="key keypos-3">
<rect rx="6" ry="6" x="-26" y="-26" width="52" height="52" class="key"/>
<text x="0" y="2" class="tap trans">▽</text>
</g>
<g transform="translate(250.0, 26.0)" class="key keypos-4">
<rect rx="6" ry="6" x="-26" y="-26" width="52" height="52" class="key"/>
<text x="0" y="2" class="tap trans">▽</text>
</g>
<g transform="translate(306.0, 26.0)" class="key keypos-5">
<rect rx="6" ry="6" x="-26" y="-26" width="52" height="52" class="key"/>
<text x="0" y="2" class="tap trans">▽</text>
</g>
<g transform="translate(530.0, 26.0)" class="key keypos-6">
<rect rx="6" ry="6" x="-26" y="-26" width="52" height="52" class="key"/>
<text x="0" y="2" class="tap">1</text>
</g>
<g transform="translate(586.0, 26.0)" class="key keypos-7">
<rect rx="6" ry="6" x="-26" y="-26" width="52" height="52" class="key"/>
<text x="0" y="2" class="tap">2</text>
</g>
<g transform="translate(642.0, 26.0)" class="key keypos-8">
<rect rx="6" ry="6" x="-26" y="-26" width="52" height="52" class="key"/>
<text x="0" y="2" class="tap">3</text>
</g>
<g transform="translate(698.0, 26.0)" class="key keypos-9">
<rect rx="6" ry="6" x="-26" y="-26" width="52" height="52" class="key"/>
<text x="0" y="2" class="tap">_</text>
</g>
<g transform="translate(754.0, 26.0)" class="key keypos-10">
<rect rx="6" ry="6" x="-26" y="-26" width="52" height="52" class="key"/>
<text x="0" y="2" class="tap">+</text>
</g>
<g transform="translate(810.0, 26.0)" class="key keypos-11">
<rect rx="6" ry="6" x="-26" y="-26" width="52" height="52" class="key"/>
<text x="0" y="2" class="tap">BACKSPACE</text>
</g>
<g transform="translate(26.0, 82.0)" class="key keypos-12">
<rect rx="6" ry="6" x="-26" y="-26" width="52" height="52" class="key"/>
<text x="0" y="2" class="tap trans">▽</text>
</g>
<g transform="translate(82.0, 82.0)" class="key keypos-13">
<rect rx="6" ry="6" x="-26" y="-26" width="52" height="52" class="key"/>
<text x="0" y="2" class="tap trans">▽</text>
</g>
<g transform="translate(138.0, 82.0)" class="key keypos-14">
<rect rx="6" ry="6" x="-26" y="-26" width="52" height="52" class="key"/>
<text x="0" y="2" class="tap trans">▽</text>
</g>
<g transform="translate(194.0, 82.0)" class="key keypos-15">
<rect rx="6" ry="6" x="-26" y="-26" width="52" height="52" class="key"/>
<text x="0" y="2" class="tap trans">▽</text>
</g>
<g transform="translate(250.0, 82.0)" class="key keypos-16">
<rect rx="6" ry="6" x="-26" y="-26" width="52" height="52" class="key"/>
<text x="0" y="2" class="tap trans">▽</text>
</g>
<g transform="translate(306.0, 82.0)" class="key keypos-17">
<rect rx="6" ry="6" x="-26" y="-26" width="52" height="52" class="key"/>
<text x="0" y="2" class="tap trans">▽</text>
</g>
<g transform="translate(530.0, 82.0)" class="key keypos-18">
<rect rx="6" ry="6" x="-26" y="-26" width="52" height="52" class="key"/>
<text x="0" y="2" class="tap">4</text>
</g>
<g transform="translate(586.0, 82.0)" class="key keypos-19">
<rect rx="6" ry="6" x="-26" y="-26" width="52" height="52" class="key"/>
<text x="0" y="2" class="tap">5</text>
</g>
<g transform="translate(642.0, 82.0)" class="key keypos-20">
<rect rx="6" ry="6" x="-26" y="-26" width="52" height="52" class="key"/>
<text x="0" y="2" class="tap">6</text>
</g>
<g transform="translate(698.0, 82.0)" class="key keypos-21">
<rect rx="6" ry="6" x="-26" y="-26" width="52" height="52" class="key"/>
<text x="0" y="2" class="tap">-</text>
</g>
<g transform="translate(754.0, 82.0)" class="key keypos-22">
<rect rx="6" ry="6" x="-26" y="-26" width="52" height="52" class="key"/>
<text x="0" y="2" class="tap">=</text>
</g>
<g transform="translate(810.0, 82.0)" class="key keypos-23">
<rect rx="6" ry="6" x="-26" y="-26" width="52" height="52" class="key"/>
<text x="0" y="2" class="tap">&quot;</text>
</g>
<g transform="translate(26.0, 138.0)" class="key keypos-24">
<rect rx="6" ry="6" x="-26" y="-26" width="52" height="52" class="key"/>
<text x="0" y="2" class="tap trans">▽</text>
</g>
<g transform="translate(82.0, 138.0)" class="key keypos-25">
<rect rx="6" ry="6" x="-26" y="-26" width="52" height="52" class="key"/>
<text x="0" y="2" class="tap trans">▽</text>
</g>
<g transform="translate(138.0, 138.0)" class="key keypos-26">
<rect rx="6" ry="6" x="-26" y="-26" width="52" height="52" class="key"/>
<text x="0" y="2" class="tap trans">▽</text>
</g>
<g transform="translate(194.0, 138.0)" class="key keypos-27">
<rect rx="6" ry="6" x="-26" y="-26" width="52" height="52" class="key"/>
<text x="0" y="2" class="tap trans">▽</text>
</g>
<g transform="translate(250.0, 138.0)" class="key keypos-28">
<rect rx="6" ry="6" x="-26" y="-26" width="52" height="52" class="key"/>
<text x="0" y="2" class="tap trans">▽</text>
</g>
<g transform="translate(306.0, 138.0)" class="key keypos-29">
<rect rx="6" ry="6" x="-26" y="-26" width="52" height="52" class="key"/>
<text x="0" y="2" class="tap trans">▽</text>
</g>
<g transform="translate(530.0, 138.0)" class="key keypos-30">
<rect rx="6" ry="6" x="-26" y="-26" width="52" height="52" class="key"/>
<text x="0" y="2" class="tap">7</text>
</g>
<g transform="translate(586.0, 138.0)" class="key keypos-31">
<rect rx="6" ry="6" x="-26" y="-26" width="52" height="52" class="key"/>
<text x="0" y="2" class="tap">8</text>
</g>
<g transform="translate(642.0, 138.0)" class="key keypos-32">
<rect rx="6" ry="6" x="-26" y="-26" width="52" height="52" class="key"/>
<text x="0" y="2" class="tap">9</text>
</g>
<g transform="translate(698.0, 138.0)" class="key keypos-33">
<rect rx="6" ry="6" x="-26" y="-26" width="52" height="52" class="key"/>
<text x="0" y="2" class="tap">*</text>
</g>
<g transform="translate(754.0, 138.0)" class="key keypos-34">
<rect rx="6" ry="6" x="-26" y="-26" width="52" height="52" class="key"/>
<text x="0" y="2" class="tap">UP</text>
</g>
<g transform="translate(810.0, 138.0)" class="key keypos-35">
<rect rx="6" ry="6" x="-26" y="-26" width="52" height="52" class="key"/>
<text x="0" y="2" class="tap">&#39;</text>
</g>
<g transform="translate(26.0, 194.0)" class="key keypos-36">
<rect rx="6" ry="6" x="-26" y="-26" width="52" height="52" class="key"/>
<text x="0" y="2" class="tap trans">▽</text>
</g>
<g transform="translate(82.0, 194.0)" class="key keypos-37">
<rect rx="6" ry="6" x="-26" y="-26" width="52" height="52" class="key"/>
<text x="0" y="2" class="tap trans">▽</text>
</g>
<g transform="translate(138.0, 194.0)" class="key keypos-38">
<rect rx="6" ry="6" x="-26" y="-26" width="52" height="52" class="key"/>
<text x="0" y="2" class="tap trans">▽</text>
</g>
<g transform="translate(194.0, 194.0)" class="key keypos-39">
<rect rx="6" ry="6" x="-26" y="-26" width="52" height="52" class="key"/>
<text x="0" y="2" class="tap trans">▽</text>
</g>
<g transform="translate(250.0, 194.0)" class="key keypos-40">
<rect rx="6" ry="6" x="-26" y="-26" width="52" height="52" class="key"/>
<text x="0" y="2" class="tap trans">▽</text>
</g>
<g transform="translate(306.0, 194.0)" class="key keypos-41">
<rect rx="6" ry="6" x="-26" y="-26" width="52" height="52" class="key"/>
<text x="0" y="2" class="tap trans">▽</text>
</g>
<g transform="translate(362.0, 194.0)" class="key keypos-42">
<rect rx="6" ry="6" x="-26" y="-26" width="52" height="52" class="key"/>
<text x="0" y="2" class="tap trans">▽</text>
</g>
<g transform="translate(474.0, 194.0)" class="key keypos-43">
<rect rx="6" ry="6" x="-26" y="-26" width="52" height="52" class="key"/>
<text x="0" y="2" class="tap">]</text>
</g>
<g transform="translate(530.0, 194.0)" class="key keypos-44">
<rect rx="6" ry="6" x="-26" y="-26" width="52" height="52" class="key"/>
<text x="0" y="2" class="tap">SPACE</text>
</g>
<g transform="translate(586.0, 194.0)" class="key keypos-45">
<rect rx="6" ry="6" x="-26" y="-26" width="52" height="52" class="key"/>
<text x="0" y="2" class="tap">0</text>
</g>
<g transform="translate(642.0, 194.0)" class="key keypos-46">
<rect rx="6" ry="6" x="-26" y="-26" width="52" height="52" class="key"/>
<text x="0" y="2" class="tap">ENTER</text>
</g>
<g transform="translate(698.0, 194.0)" class="key keypos-47">
<rect rx="6" ry="6" x="-26" y="-26" width="52" height="52" class="key"/>
<text x="0" y="2" class="tap">LEFT</text>
</g>
<g transform="translate(754.0, 194.0)" class="key keypos-48">
<rect rx="6" ry="6" x="-26" y="-26" width="52" height="52" class="key"/>
<text x="0" y="2" class="tap">DOWN</text>
</g>
<g transform="translate(810.0, 194.0)" class="key keypos-49">
<rect rx="6" ry="6" x="-26" y="-26" width="52" height="52" class="key"/>
<text x="0" y="2" class="tap">RIGHT</text>
</g>
</g>
</g>
<g transform="translate(30, 1080)" class="layer-SYS">
<text x="0" y="28" class="label">SYS</text>
<rect x="102" y="10" width="856.0" height="306" class="layer-box"/>
<g transform="translate(110, 56)">
<g transform="translate(26.0, 26.0)" class="key keypos-0">
<rect rx="6" ry="6" x="-26" y="-26" width="52" height="52" class="key"/>
<text x="0" y="2" class="tap">BT CLR</text>
</g>
<g transform="translate(82.0, 26.0)" class="key keypos-1">
<rect rx="6" ry="6" x="-26" y="-26" width="52" height="52" class="key"/>
<text x="0" y="-12" class="hold">0</text>
<text x="0" y="8" class="tap">BT</text>
</g>
<g transform="translate(138.0, 26.0)" class="key keypos-2">
<rect rx="6" ry="6" x="-26" y="-26" width="52" height="52" class="key"/>
<text x="0" y="-12" class="hold">1</text>
<text x="0" y="8" class="tap">BT</text>
</g>
<g transform="translate(194.0, 26.0)" class="key keypos-3">
<rect rx="6" ry="6" x="-26" y="-26" width="52" height="52" class="key"/>
<text x="0" y="-12" class="hold">2</text>
<text x="0" y="8" class="tap">BT</text>
</g>
<g transform="translate(250.0, 26.0)" class="key keypos-4">
<rect rx="6" ry="6" x="-26" y="-26" width="52" height="52" class="key"/>
<text x="0" y="-12" class="hold">3</text>
<text x="0" y="8" class="tap">BT</text>
</g>
<g transform="translate(306.0, 26.0)" class="key keypos-5">
<rect rx="6" ry="6" x="-26" y="-26" width="52" height="52" class="key"/>
<text x="0" y="-12" class="hold">4</text>
<text x="0" y="8" class="tap">BT</text>
</g>
<g transform="translate(530.0, 26.0)" class="key keypos-6">
<rect rx="6" ry="6" x="-26" y="-26" width="52" height="52" class="key"/>
<text x="0" y="2" class="tap">CAPSLOCK</text>
</g>
<g transform="translate(586.0, 26.0)" class="key keypos-7">
<rect rx="6" ry="6" x="-26" y="-26" width="52" height="52" class="key"/>
<text x="0" y="2" class="tap">KP NUMLOCK</text>
</g>
<g transform="translate(642.0, 26.0)" class="key keypos-8">
<rect rx="6" ry="6" x="-26" y="-26" width="52" height="52" class="key"/>
<text x="0" y="2" class="tap">SCROLLLOCK</text>
</g>
<g transform="translate(698.0, 26.0)" class="key keypos-9">
<rect rx="6" ry="6" x="-26" y="-26" width="52" height="52" class="key"/>
<text x="0" y="2" class="tap trans">▽</text>
</g>
<g transform="translate(754.0, 26.0)" class="key keypos-10">
<rect rx="6" ry="6" x="-26" y="-26" width="52" height="52" class="key"/>
<text x="0" y="2" class="tap">&amp;studio_unlock</text>
</g>
<g transform="translate(810.0, 26.0)" class="key keypos-11">
<rect rx="6" ry="6" x="-26" y="-26" width="52" height="52" class="key"/>
<text x="0" y="2" class="tap">OUT TOG</text>
</g>
<g transform="translate(26.0, 82.0)" class="key keypos-12">
<rect rx="6" ry="6" x="-26" y="-26" width="52" height="52" class="key"/>
<text x="0" y="2" class="tap trans">▽</text>
</g>
<g transform="translate(82.0, 82.0)" class="key keypos-13">
<rect rx="6" ry="6" x="-26" y="-26" width="52" height="52" class="key"/>
<text x="0" y="2" class="tap trans">▽</text>
</g>
<g transform="translate(138.0, 82.0)" class="key keypos-14">
<rect rx="6" ry="6" x="-26" y="-26" width="52" height="52" class="key"/>
<text x="0" y="2" class="tap trans">▽</text>
</g>
<g transform="translate(194.0, 82.0)" class="key keypos-15">
<rect rx="6" ry="6" x="-26" y="-26" width="52" height="52" class="key"/>
<text x="0" y="2" class="tap trans">▽</text>
</g>
<g transform="translate(250.0, 82.0)" class="key keypos-16">
<rect rx="6" ry="6" x="-26" y="-26" width="52" height="52" class="key"/>
<text x="0" y="2" class="tap trans">▽</text>
</g>
<g transform="translate(306.0, 82.0)" class="key keypos-17">
<rect rx="6" ry="6" x="-26" y="-26" width="52" height="52" class="key"/>
<text x="0" y="2" class="tap trans">▽</text>
</g>
<g transform="translate(530.0, 82.0)" class="key keypos-18">
<rect rx="6" ry="6" x="-26" y="-26" width="52" height="52" class="key"/>
<text x="0" y="2" class="tap"></text>
</g>
<g transform="translate(586.0, 82.0)" class="key keypos-19">
<rect rx="6" ry="6" x="-26" y="-26" width="52" height="52" class="key"/>
<text x="0" y="2" class="tap"></text>
</g>
<g transform="translate(642.0, 82.0)" class="key keypos-20">
<rect rx="6" ry="6" x="-26" y="-26" width="52" height="52" class="key"/>
<text x="0" y="2" class="tap"></text>
</g>
<g transform="translate(698.0, 82.0)" class="key keypos-21">
<rect rx="6" ry="6" x="-26" y="-26" width="52" height="52" class="key"/>
<text x="0" y="2" class="tap"></text>
</g>
<g transform="translate(754.0, 82.0)" class="key keypos-22">
<rect rx="6" ry="6" x="-26" y="-26" width="52" height="52" class="key"/>
<text x="0" y="2" class="tap"></text>
</g>
<g transform="translate(810.0, 82.0)" class="key keypos-23">
<rect rx="6" ry="6" x="-26" y="-26" width="52" height="52" class="key"/>
<text x="0" y="2" class="tap"></text>
</g>
<g transform="translate(26.0, 138.0)" class="key keypos-24">
<rect rx="6" ry="6" x="-26" y="-26" width="52" height="52" class="key"/>
<text x="0" y="2" class="tap trans">▽</text>
</g>
<g transform="translate(82.0, 138.0)" class="key keypos-25">
<rect rx="6" ry="6" x="-26" y="-26" width="52" height="52" class="key"/>
<text x="0" y="2" class="tap trans">▽</text>
</g>
<g transform="translate(138.0, 138.0)" class="key keypos-26">
<rect rx="6" ry="6" x="-26" y="-26" width="52" height="52" class="key"/>
<text x="0" y="2" class="tap trans">▽</text>
</g>
<g transform="translate(194.0, 138.0)" class="key keypos-27">
<rect rx="6" ry="6" x="-26" y="-26" width="52" height="52" class="key"/>
<text x="0" y="2" class="tap trans">▽</text>
</g>
<g transform="translate(250.0, 138.0)" class="key keypos-28">
<rect rx="6" ry="6" x="-26" y="-26" width="52" height="52" class="key"/>
<text x="0" y="2" class="tap trans">▽</text>
</g>
<g transform="translate(306.0, 138.0)" class="key keypos-29">
<rect rx="6" ry="6" x="-26" y="-26" width="52" height="52" class="key"/>
<text x="0" y="2" class="tap trans">▽</text>
</g>
<g transform="translate(530.0, 138.0)" class="key keypos-30">
<rect rx="6" ry="6" x="-26" y="-26" width="52" height="52" class="key"/>
<text x="0" y="2" class="tap"></text>
</g>
<g transform="translate(586.0, 138.0)" class="key keypos-31">
<rect rx="6" ry="6" x="-26" y="-26" width="52" height="52" class="key"/>
<text x="0" y="2" class="tap"></text>
</g>
<g transform="translate(642.0, 138.0)" class="key keypos-32">
<rect rx="6" ry="6" x="-26" y="-26" width="52" height="52" class="key"/>
<text x="0" y="2" class="tap"></text>
</g>
<g transform="translate(698.0, 138.0)" class="key keypos-33">
<rect rx="6" ry="6" x="-26" y="-26" width="52" height="52" class="key"/>
<text x="0" y="2" class="tap"></text>
</g>
<g transform="translate(754.0, 138.0)" class="key keypos-34">
<rect rx="6" ry="6" x="-26" y="-26" width="52" height="52" class="key"/>
<text x="0" y="2" class="tap"></text>
</g>
<g transform="translate(810.0, 138.0)" class="key keypos-35">
<rect rx="6" ry="6" x="-26" y="-26" width="52" height="52" class="key"/>
<text x="0" y="2" class="tap trans">▽</text>
</g>
<g transform="translate(26.0, 194.0)" class="key keypos-36">
<rect rx="6" ry="6" x="-26" y="-26" width="52" height="52" class="key"/>
<text x="0" y="2" class="tap">BOOT</text>
</g>
<g transform="translate(82.0, 194.0)" class="key keypos-37">
<rect rx="6" ry="6" x="-26" y="-26" width="52" height="52" class="key"/>
<text x="0" y="2" class="tap trans">▽</text>
</g>
<g transform="translate(138.0, 194.0)" class="key keypos-38">
<rect rx="6" ry="6" x="-26" y="-26" width="52" height="52" class="key"/>
<text x="0" y="2" class="tap trans">▽</text>
</g>
<g transform="translate(194.0, 194.0)" class="key keypos-39">
<rect rx="6" ry="6" x="-26" y="-26" width="52" height="52" class="key"/>
<text x="0" y="2" class="tap trans">▽</text>
</g>
<g transform="translate(250.0, 194.0)" class="key keypos-40">
<rect rx="6" ry="6" x="-26" y="-26" width="52" height="52" class="key"/>
<text x="0" y="2" class="tap trans">▽</text>
</g>
<g transform="translate(306.0, 194.0)" class="key keypos-41">
<rect rx="6" ry="6" x="-26" y="-26" width="52" height="52" class="key"/>
<text x="0" y="2" class="tap trans">▽</text>
</g>
<g transform="translate(362.0, 194.0)" class="key keypos-42">
<rect rx="6" ry="6" x="-26" y="-26" width="52" height="52" class="key"/>
<text x="0" y="2" class="tap trans">▽</text>
</g>
<g transform="translate(474.0, 194.0)" class="key keypos-43">
<rect rx="6" ry="6" x="-26" y="-26" width="52" height="52" class="key"/>
<text x="0" y="2" class="tap trans">▽</text>
</g>
<g transform="translate(530.0, 194.0)" class="key keypos-44">
<rect rx="6" ry="6" x="-26" y="-26" width="52" height="52" class="key"/>
<text x="0" y="2" class="tap trans">▽</text>
</g>
<g transform="translate(586.0, 194.0)" class="key keypos-45">
<rect rx="6" ry="6" x="-26" y="-26" width="52" height="52" class="key"/>
<text x="0" y="2" class="tap trans">▽</text>
</g>
<g transform="translate(642.0, 194.0)" class="key keypos-46">
<rect rx="6" ry="6" x="-26" y="-26" width="52" height="52" class="key"/>
<text x="0" y="2" class="tap trans">▽</text>
</g>
<g transform="translate(698.0, 194.0)" class="key keypos-47">
<rect rx="6" ry="6" x="-26" y="-26" width="52" height="52" class="key"/>
<text x="0" y="2" class="tap trans">▽</text>
</g>
<g transform="translate(754.0, 194.0)" class="key keypos-48">
<rect rx="6" ry="6" x="-26" y="-26" width="52" height="52" class="key"/>
<text x="0" y="2" class="tap trans">▽</text>
</g>
<g transform="translate(810.0, 194.0)" class="key keypos-49">
<rect rx="6" ry="6" x="-26" y="-26" width="52" height="52" class="key"/>
<text x="0" y="2" class="tap">BOOT</text>
</g>
</g>
</g>
</svg>
